<?xml version="1.0" encoding="UTF-8" standalone="no"?>
<svg
   version="1.1"
   width="553.25574"
   height="829.19867"
   id="svg18912"
   sodipodi:docname="trash.svg"
   inkscape:version="1.2.1 (9c6d41e410, 2022-07-14)"
   xmlns:inkscape="http://www.inkscape.org/namespaces/inkscape"
   xmlns:sodipodi="http://sodipodi.sourceforge.net/DTD/sodipodi-0.dtd"
   xmlns:xlink="http://www.w3.org/1999/xlink"
   xmlns="http://www.w3.org/2000/svg"
   xmlns:svg="http://www.w3.org/2000/svg">
  <defs
     id="defs18916">
    <linearGradient
       id="linearGradient21478"
       inkscape:swatch="solid">
      <stop
         style="stop-color:#c8c8c8;stop-opacity:1;"
         offset="0"
         id="stop21476" />
    </linearGradient>
    <linearGradient
       inkscape:collect="always"
       id="linearGradient19440">
      <stop
         style="stop-color:#161010;stop-opacity:1;"
         offset="0.25555557"
         id="stop19436" />
      <stop
         style="stop-color:#000000;stop-opacity:0;"
         offset="1"
         id="stop19438" />
    </linearGradient>
    <linearGradient
       inkscape:collect="always"
       id="linearGradient19425">
      <stop
         style="stop-color:#000000;stop-opacity:0;"
         offset="0"
         id="stop19423" />
      <stop
         style="stop-color:#000000;stop-opacity:0.7254902;"
         offset="0.20833328"
         id="stop19429" />
      <stop
         style="stop-color:#363636;stop-opacity:0.78431374;"
         offset="0.50277781"
         id="stop19434" />
      <stop
         style="stop-color:#000000;stop-opacity:1;"
         offset="0.99888897"
         id="stop19421" />
    </linearGradient>
    <radialGradient
       inkscape:collect="always"
       xlink:href="#linearGradient19425"
       id="radialGradient19427"
       cx="942.75995"
       cy="218.5065"
       fx="942.75995"
       fy="218.5065"
       r="233.2319"
       gradientTransform="matrix(1,0,0,0.41409644,14.596271,160.77206)"
       gradientUnits="userSpaceOnUse"
       spreadMethod="reflect" />
    <linearGradient
       inkscape:collect="always"
       xlink:href="#linearGradient19440"
       id="linearGradient19442"
       x1="776.61401"
       y1="410.30151"
       x2="1103.8383"
       y2="410.30151"
       gradientUnits="userSpaceOnUse" />
    <inkscape:path-effect
       effect="fill_between_many"
       method="originald"
       linkedpaths="#path18888,0,1"
       id="path-effect21583"
       is_visible="true"
       lpeversion="0"
       join="true"
       close="true"
       autoreverse="true" />
  </defs>
  <sodipodi:namedview
     id="namedview18914"
     pagecolor="#ffffff"
     bordercolor="#666666"
     borderopacity="1.0"
     inkscape:showpageshadow="2"
     inkscape:pageopacity="0.0"
     inkscape:pagecheckerboard="0"
     inkscape:deskcolor="#d1d1d1"
     showgrid="false"
     inkscape:zoom="0.21851852"
     inkscape:cx="-759.66102"
     inkscape:cy="-736.77966"
     inkscape:window-width="1858"
     inkscape:window-height="1057"
     inkscape:window-x="54"
     inkscape:window-y="-8"
     inkscape:window-maximized="1"
     inkscape:current-layer="strokes" />
  <g
     id="ViewLayer_LineSet"
     inkscape:label="ViewLayer_LineSet"
     transform="translate(-637.33241,-111.59234)">
    <g
       inkscape:groupmode="layer"
       id="strokes"
       inkscape:label="strokes">
      <path
         fill="none"
         stroke-width="3"
         stroke-linecap="butt"
         stroke-opacity="1"
         stroke="#000000"
         stroke-linejoin="round"
         d="m 1061.478,881.066 0.985,-9.951 0.149,-1.507 0.204,-2.061 1.552,-9.879 1.552,-9.879 1.551,-9.878 1.552,-9.879 1.552,-9.879 1.551,-9.879 1.552,-9.879 1.552,-9.879 1.551,-9.879 1.552,-9.879 1.552,-9.879 1.551,-9.878 1.552,-9.879 1.552,-9.879 1.551,-9.879 1.552,-9.879 1.552,-9.879 1.551,-9.879 1.552,-9.879 1.552,-9.878 1.551,-9.879 1.552,-9.879 1.552,-9.879 1.552,-9.879 1.551,-9.879 1.552,-9.879 1.552,-9.879 1.551,-9.878 1.552,-9.879 1.552,-9.879 1.551,-9.879 1.552,-9.879 1.552,-9.879 1.551,-9.879 1.552,-9.879 1.552,-9.879 1.551,-9.878 1.552,-9.879 1.552,-9.879 1.551,-9.879 1.552,-9.879 1.552,-9.879 1.551,-9.879 2.232,-14.21 -1.649,-7.5 -7.474,-6.644 -1.272,-1.131 -8.913,-4.534 -6.338,-3.225 -9.421,-3.353 -9.421,-3.354 -2.152,-0.766 -9.658,-2.595 -9.657,-2.595 -6.531,-1.755 -9.789,-2.043 -9.789,-2.043 -9.789,-2.043 -0.358,-0.075 -9.871,-1.601 -9.871,-1.6 -9.871,-1.601 -2.962,-0.48 -9.926,-1.216 -9.925,-1.215 -9.926,-1.215 -4.587,-0.562 -9.963,-0.855 -9.963,-0.855 -9.964,-0.855 -5.183,-0.445 -9.988,-0.495 -9.988,-0.495 -9.987,-0.495 -4.733,-0.235 -10,-0.11 -9.999,-0.11 -9.999,-0.11 -3.233,-0.036 -9.994,0.332 -9.995,0.333 -9.994,0.332 -0.704,0.023 -9.961,0.884 -9.961,0.883 -7.168,0.636 -9.864,1.643 -9.864,1.642 -2.755,0.459 -9.592,2.829 -7.351,2.169 -8.657,5.005 -1.925,1.114 -3.569,7.054 -0.106,9.999 -0.105,10 -0.105,9.999 -0.105,10 -0.105,9.999 -0.106,9.999 -0.105,10 -0.105,9.999 -0.105,10 -0.106,9.999 -0.105,10 -0.105,9.999 -0.105,10 -0.106,9.999 -0.105,9.999 -0.105,10 -0.105,9.999 -0.105,10 -0.106,9.999 -0.105,10 -0.105,9.999 -0.105,10 -0.106,9.999 -0.105,9.999 -0.105,10 -0.105,9.999 -0.106,10 -0.105,9.999 -0.105,10 -0.105,9.999 -0.106,10 -0.105,9.999 -0.105,9.999 -0.105,10 -0.105,9.999 -0.106,10 -0.105,9.999 -0.105,10 -0.105,9.999 -0.106,10 -0.105,9.999 -0.105,10 -0.105,9.999 -0.106,9.999 -0.049,4.667 -0.242,3.575 -0.678,9.983"
         id="path18878"
         style="mix-blend-mode:normal;fill:#959595;fill-opacity:1" />
      <path
         fill="none"
         stroke-width="3"
         stroke-linecap="butt"
         stroke-opacity="1"
         stroke="#000000"
         stroke-linejoin="round"
         d="m 1131.77,428.545 -5.804,6.918 -9.111,4.123 -4.219,1.908 -9.733,2.295 -3.746,0.884 -7.105,1.675 -9.922,1.249 -9.922,1.248 -7.355,0.925 -9.985,0.546 -9.985,0.546 -9.986,0.546 -2.837,0.155 -10,0.011 -10,0.011 -10,0.011 -7.015,0.008 -9.991,-0.44 -9.99,-0.439 -9.99,-0.44 -9.614,-0.423 -9.963,-0.854 -9.963,-0.855 -9.964,-0.854 -9.963,-0.855 -0.464,-0.039 -9.919,-1.27 -9.919,-1.27 -9.919,-1.269 -9.402,-1.204 -9.851,-1.72 -9.851,-1.72 -9.851,-1.721 -6.634,-1.159 -9.743,-2.255 -9.742,-2.256 -9.742,-2.255 -2.378,-0.551 -9.553,-2.958 -9.552,-2.958 -6.608,-2.046 -4.362,-1.904 -9.164,-4.002 -5.345,-2.334 -8.147,-5.798 -3.32,-2.363 -3.875,-7.751"
         id="path18880" />
      <path
         fill="none"
         stroke-width="3"
         stroke-linecap="butt"
         stroke-opacity="1"
         stroke="#000000"
         stroke-linejoin="round"
         d="m 1102.366,425.685 -1.256,-6.446 -7.294,-6.706 -8.865,-4.627 -3.998,-2.086 -9.397,-3.421 -8.408,-3.061 -9.644,-2.646 -9.643,-2.646 -2.711,-0.743 -9.781,-2.082 -9.781,-2.082 -5.797,-1.234 -9.866,-1.629 -9.866,-1.629 -8.094,-1.337 -9.923,-1.234 -9.924,-1.235 -9.518,-1.185 -9.963,-0.865 -9.962,-0.866 -10.03,-0.871 -9.987,-0.496 -9.988,-0.495 -9.61,-0.477 -10,-0.098 -9.999,-0.099 -8.263,-0.081 -9.993,0.359 -9.994,0.359 -6.011,0.216 -9.956,0.933 -9.957,0.934 -2.913,0.273 -9.85,1.729 -8.948,1.571 -9.544,2.985 -4.449,1.392 -8.524,5.329 -2.545,6.113 3.746,6.686 8.218,5.698 1.89,1.311 9.175,3.977 7.085,3.072 9.551,2.961 9.552,2.96 2.799,0.867 9.739,2.268 9.74,2.267 7.248,1.687 9.849,1.735 9.848,1.735 9.849,1.734 0.91,0.161 9.917,1.283 9.917,1.284 9.918,1.283 3.101,0.402 9.963,0.866 9.962,0.866 9.963,0.866 3.882,0.338 9.99,0.448 9.99,0.448 9.989,0.449 3.174,0.142 10,-0.006 10,-0.007 10,-0.006 1.017,-0.001 9.986,-0.546 9.985,-0.545 7.563,-0.413 9.921,-1.254 9.921,-1.253 3.067,-0.387 9.731,-2.303 7.688,-1.82 9.11,-4.124 2.253,-1.021 5.045,-5.924"
         id="path18882"
         style="fill:url(#linearGradient19442);fill-opacity:1" />
      <path
         fill="none"
         stroke-width="3"
         stroke-linecap="butt"
         stroke-opacity="1"
         stroke="#000000"
         stroke-linejoin="round"
         d="m 743.344,843.858 -6.617,7.497 -0.925,1.048 -2.711,9.625 -0.622,2.207 2.499,9.683 0.713,2.765 6.171,7.869 3.694,4.711 8.013,5.982 8.014,5.982 0.304,0.227 8.926,4.509 8.925,4.509 4.445,2.245 9.415,3.368 9.416,3.368 8.603,3.078 9.699,2.434 9.699,2.435 9.699,2.434 2.348,0.589 9.869,1.617 9.868,1.617 9.869,1.616 4.477,0.734 9.964,0.85 9.964,0.85 9.964,0.851 5.285,0.451 9.999,0.081 10,0.082 10,0.081 4.658,0.038 9.972,-0.744 9.973,-0.744 9.972,-0.744 2.649,-0.197 9.855,-1.695 9.855,-1.694 9.331,-1.604 9.579,-2.87 9.579,-2.87 5.153,-1.544 8.968,-4.423 8.969,-4.422 0.721,-0.356 7.578,-6.525 4.82,-4.151 4.478,-8.942 1.366,-2.729 -0.582,-9.983 -0.128,-2.191 -4.981,-8.672 -1.484,-2.583"
         id="path18884"
         style="fill:#959595;fill-opacity:1" />
      <path
         fill="none"
         stroke-width="3"
         stroke-linecap="butt"
         stroke-opacity="1"
         stroke="#000000"
         stroke-linejoin="round"
         d="m 1189.4393,246.82632 -6.43,-7.659 -6.43,-7.659 -6.429,-7.659 -6.092,-7.256 -5.266,-8.502 -5.265,-8.501 -5.266,-8.501 -5.266,-8.502 -3.929,-6.343 -2.169,-2.35 -8.729,-4.878 -8.73,-4.878 -8.729,-4.878 -2.66,-1.487 -7.963,-0.435 -9.997,-0.262 -9.997,-0.261 -9.996,-0.261 -9.997,-0.262 -4.53,-0.118 -9.736,0.695 -9.928,1.196 -3.72,0.448 -9.892,1.464 -7.097,1.051 -9.864,1.644 -9.81503,1.636 -9.84,1.783 -9.84,1.783 -1.976,0.358 -9.818,1.9 -9.818,1.899 -3.247,0.628 -9.797,2.007 -9.797,2.006 -3.744,0.767 -9.775,2.112 -9.774,2.112 -3.466,0.749 -9.749,2.224 -9.75,2.224 -2.42,0.552 -9.719,2.352 -9.719,2.353 -0.634,0.153 -9.679,2.514 -7.834,2.034 -9.618,2.74 -4.678,1.333 -9.502,3.116 -0.996,0.327 -6.223,2.671 -9.162,4.007 -9.162,4.008 -9.162,4.007 -9.162,4.007 -9.162,4.008 -0.922,0.403 -2.809,2.72 -6.086,7.934 -6.086,7.935 -6.086,7.935 -2.209,2.879 -1.506,9.886 -1.507,9.886 -1.507,9.886 -1.506,9.886 -1.07,7.014 -2.908,9.568 -2.909,9.567 -2.909,9.568 -2.65,8.716 4.52,3.748 9.918,1.273 3.805,0.489 9.999,-0.175 9.998,-0.174 2.8,-0.049 9.965,-0.841 9.964,-0.841 9.965,-0.842 1.376,-0.116 9.922,-1.245 9.922,-1.246 9.922,-1.245 8.867,-1.113 9.881,-1.536 9.882,-1.536 9.881,-1.535 9.881,-1.536 4.87,-0.757 9.842,-1.771 9.842,-1.771 9.842,-1.772 9.842,-1.771 8.767,-1.578 9.802,-1.982 9.801,-1.983 9.802,-1.982 9.801,-1.982 9.802,-1.983 0.553,-0.112 9.757,-2.189 9.757,-2.19 9.75703,-2.19 9.758,-2.189 9.522,-2.137 9.705,-2.412 9.705,-2.412 9.705,-2.411 9.705,-2.412 6.363,-1.581 9.636,-2.674 9.636,-2.673 9.636,-2.673 9.636,-2.674 1.161,-0.322 9.534,-3.018 9.534,-3.017 9.534,-3.018 3.919,-1.241 9.352,-3.54 9.352,-3.541 5.412,-2.049 8.917,-4.525 6.092,-3.092 5.696,-5.855"
         id="path18886"
         style="fill:url(#radialGradient19427);fill-opacity:1" />
      <path
         inkscape:original-d="M 0,0"
         inkscape:path-effect="#path-effect21583"
         d="m 781.33564,208.84879 v 0.002 0.002 l -9.94531,1.04492 -10.02734,1.05274 a 1.50015,1.50015 0 0 0 -0.002,0 l -9.94531,1.06445 -3.16797,0.33984 -9.94726,0.65625 -7.58203,0.5 -9.96289,0.16993 -9.42188,0.16015 a 1.50015,1.50015 0 0 0 -0.27734,0.0312 l -9.79297,2.02344 -7.03516,1.45508 -9.79297,2.02344 -7.01758,1.45117 a 1.50015,1.50015 0 0 0 -0.26757,0.082 l -9.24805,3.80664 -8.64258,3.55859 -9.38672,3.33789 -7.08789,2.52149 -9.52148,2.95312 -2.98633,0.92774 a 1.50015,1.50015 0 0 0 -0.004,0 l -9.54492,2.98242 -9.45508,2.95508 a 1.50015,1.50015 0 0 0 -0.71093,0.48047 l -6.34375,7.73047 -4.6875,5.71679 a 1.50015,1.50015 0 0 0 -0.25964,0.46483 l -3.24219,9.45898 -2.01172,5.86133 a 1.50015,1.50015 0 0 0 -0.082,0.47656 l -0.0684,10 -0.0508,6.88086 a 1.50015,1.50015 0 0 0 0.002,0.0293 v 0.0762 h 0.0352 l 1.02149,9.67578 0.80468,7.64844 a 1.50015,1.50015 0 0 0 0.0117,0.01 l 0.0156,0.16211 a 1.50015,1.50015 0 0 0 0.93945,1.24024 l 0.33398,0.13281 a 1.50015,1.50015 0 0 0 0.44727,0.10156 l 0.69531,0.0508 a 1.50015,1.50015 0 0 0 0.15821,0.002 l 1.03515,-0.0352 a 1.50015,1.50015 0 0 0 0.082,-0.004 l 1.33008,-0.11914 a 1.50015,1.50015 0 0 0 0.0527,-0.008 l 1.57617,-0.19726 a 1.50015,1.50015 0 0 0 0.041,-0.006 l 1.75977,-0.26954 a 1.50015,1.50015 0 0 0 0.0332,-0.006 l 1.87696,-0.33007 a 1.50015,1.50015 0 0 0 0.0293,-0.006 l 1.92188,-0.37891 a 1.50015,1.50015 0 0 0 0.0293,-0.006 l 1.89063,-0.41406 a 1.50015,1.50015 0 0 0 0.0312,-0.008 l 1.78711,-0.42969 a 1.50015,1.50015 0 0 0 0.0352,-0.01 l 1.61329,-0.43164 a 1.50015,1.50015 0 0 0 0.0449,-0.0137 l 1.37695,-0.41601 a 1.50015,1.50015 0 0 0 0.0644,-0.0215 l 1.08789,-0.38281 a 1.50015,1.50015 0 0 0 0.10938,-0.0449 l 0.46289,-0.20508 0.041,0.125 0.11132,-0.0352 a 1.50015,1.50015 0 0 0 0.7461,-0.53906 l 0.0508,-0.0723 a 1.50015,1.50015 0 0 0 0.0762,-0.11523 1.50015,1.50015 0 0 0 0.54688,-0.9375 l 0.006,-0.0352 -0.35352,-0.0488 -1.00391,-9.85157 -0.58593,-5.77539 0.17187,-9.9082 0.0742,-4.20117 3.63477,-7.62305 6.75585,-6.79687 7.59375,0.2871 a 1.50015,1.50015 0 0 0 0.21485,-0.008 l 9.94531,-1.05664 3.0625,-0.32617 9.94922,-0.64844 7.46875,-0.48633 9.96289,-0.16406 9.33008,-0.15234 a 1.50015,1.50015 0 0 0 0.2793,-0.0312 l 9.79492,-2.01367 6.97461,-1.4336 9.79492,-2.01367 6.99414,-1.4375 a 1.50015,1.50015 0 0 0 0.26562,-0.0801 l 9.25391,-3.79101 8.67578,-3.55274 9.39258,-3.32422 7.16406,-2.53711 9.52344,-2.9414 a 1.50015,1.50015 0 0 0 0.002,0 l 3.07031,-0.94922 a 1.50015,1.50015 0 0 0 0.19922,-0.0781 l 6.94141,-3.28711 8.67187,3.48047 0.28321,0.11329 6.3789,5.5996 3.94336,8.83204 1.83985,4.12109 2.94531,9.46289 1.78516,5.73633 a 1.50015,1.50015 0 0 0 0.63476,0.82226 l 0.23633,0.15039 a 1.50015,1.50015 0 0 0 0.65039,0.22266 l 0.60352,0.0605 a 1.50015,1.50015 0 0 0 0.19726,0.006 l 0.95117,-0.0312 a 1.50015,1.50015 0 0 0 0.0957,-0.006 l 1.25976,-0.12305 a 1.50015,1.50015 0 0 0 0.0586,-0.008 l 1.51953,-0.20703 a 1.50015,1.50015 0 0 0 0.043,-0.01 l 1.72461,-0.28711 a 1.50015,1.50015 0 0 0 0.0332,-0.006 l 1.86133,-0.35351 a 1.50015,1.50015 0 0 0 0.0293,-0.006 l 1.92383,-0.40821 a 1.50015,1.50015 0 0 0 0.0293,-0.006 l 1.91406,-0.44336 a 1.50015,1.50015 0 0 0 0.0293,-0.008 l 1.82812,-0.46484 a 1.50015,1.50015 0 0 0 0.0332,-0.01 l 1.67382,-0.46679 a 1.50015,1.50015 0 0 0 0.041,-0.0117 l 1.45312,-0.45313 a 1.50015,1.50015 0 0 0 0.0566,-0.0176 l 1.17578,-0.41797 a 1.50015,1.50015 0 0 0 0.0918,-0.0371 l 0.85352,-0.36719 a 1.50015,1.50015 0 0 0 0.1875,-0.0977 l 0.5,-0.30468 a 1.50015,1.50015 0 0 0 0.5332,-0.5586 l 0.0293,-0.0527 0.47852,0.27344 0.0117,-0.0195 a 1.50015,1.50015 0 0 0 0.13282,-1.18164 l -2.29297,-7.51953 -2.59961,-8.52929 -0.31445,-1.03321 v -0.002 a 1.50015,1.50015 0 0 0 -0.26954,-0.47852 l 0.20704,-0.0898 -3.98438,-9.17188 -2.78516,-6.4082 a 1.50015,1.50015 0 0 0 -0.26367,-0.41016 l -6.71094,-7.41406 -4.22461,-4.66797 a 1.50015,1.50015 0 0 0 -0.42578,-0.32617 l -8.88476,-4.58594 -6.67188,-3.4414 a 1.50015,1.50015 0 0 0 -0.84375,-0.1582 z"
         id="path21585"
         class="UnoptimicedTransforms"
         style="fill:#272727;fill-opacity:1"
         transform="translate(217.37288,-97.245763)" />
      <path
         id="path18888"
         style="color:#000000;fill:#272727;fill-opacity:1;stroke-linejoin:round"
         d="m 795.06445,201.98438 v 0.002 0.002 l -9.94531,1.04492 -10.02734,1.05274 a 1.50015,1.50015 0 0 0 -0.002,0 l -9.94531,1.06445 -3.16797,0.33984 -9.94726,0.65625 -7.58203,0.5 -9.96289,0.16993 -9.42188,0.16015 a 1.50015,1.50015 0 0 0 -0.27734,0.0312 l -9.79297,2.02344 -7.03516,1.45508 -9.79297,2.02344 -7.01758,1.45117 a 1.50015,1.50015 0 0 0 -0.26757,0.082 l -9.24805,3.80664 -8.64258,3.55859 -9.38672,3.33789 -7.08789,2.52149 -9.52148,2.95312 -2.98633,0.92774 a 1.50015,1.50015 0 0 0 -0.004,0 l -9.54492,2.98242 -9.45508,2.95508 a 1.50015,1.50015 0 0 0 -0.71093,0.48047 l -6.34375,7.73047 -4.6875,5.71679 A 1.50015,1.50015 0 0 0 613,251.47852 l -3.24219,9.45898 -2.01172,5.86133 a 1.50015,1.50015 0 0 0 -0.082,0.47656 l -0.0684,10 -0.0508,6.88086 a 1.50015,1.50015 0 0 0 0.002,0.0293 v 0.0762 h 0.0352 l 1.02149,9.67578 0.80468,7.64844 a 1.50015,1.50015 0 0 0 0.0117,0.01 l 0.0156,0.16211 a 1.50015,1.50015 0 0 0 0.93945,1.24024 l 0.33398,0.13281 a 1.50015,1.50015 0 0 0 0.44727,0.10156 l 0.69531,0.0508 a 1.50015,1.50015 0 0 0 0.15821,0.002 l 1.03515,-0.0352 a 1.50015,1.50015 0 0 0 0.082,-0.004 l 1.33008,-0.11914 a 1.50015,1.50015 0 0 0 0.0527,-0.008 l 1.57617,-0.19726 a 1.50015,1.50015 0 0 0 0.041,-0.006 l 1.75977,-0.26954 a 1.50015,1.50015 0 0 0 0.0332,-0.006 l 1.87696,-0.33007 a 1.50015,1.50015 0 0 0 0.0293,-0.006 l 1.92188,-0.37891 a 1.50015,1.50015 0 0 0 0.0293,-0.006 l 1.89063,-0.41406 a 1.50015,1.50015 0 0 0 0.0312,-0.008 l 1.78711,-0.42969 a 1.50015,1.50015 0 0 0 0.0352,-0.01 l 1.61329,-0.43164 a 1.50015,1.50015 0 0 0 0.0449,-0.0137 l 1.37695,-0.41601 a 1.50015,1.50015 0 0 0 0.0644,-0.0215 l 1.08789,-0.38281 a 1.50015,1.50015 0 0 0 0.10938,-0.0449 l 0.46289,-0.20508 0.041,0.125 0.11132,-0.0352 a 1.50015,1.50015 0 0 0 0.7461,-0.53906 l 0.0508,-0.0723 a 1.50015,1.50015 0 0 0 0.0762,-0.11523 1.50015,1.50015 0 0 0 0.54688,-0.9375 l 0.006,-0.0352 -0.35352,-0.0488 -1.00391,-9.85157 -0.58593,-5.77539 0.17187,-9.9082 0.0742,-4.20117 3.63477,-7.62305 6.75585,-6.79687 7.59375,0.2871 a 1.50015,1.50015 0 0 0 0.21485,-0.008 l 9.94531,-1.05664 3.0625,-0.32617 9.94922,-0.64844 7.46875,-0.48633 9.96289,-0.16406 9.33008,-0.15234 a 1.50015,1.50015 0 0 0 0.2793,-0.0312 l 9.79492,-2.01367 6.97461,-1.4336 9.79492,-2.01367 6.99414,-1.4375 a 1.50015,1.50015 0 0 0 0.26562,-0.0801 l 9.25391,-3.79101 8.67578,-3.55274 9.39258,-3.32422 7.16406,-2.53711 9.52344,-2.9414 a 1.50015,1.50015 0 0 0 0.002,0 l 3.07031,-0.94922 a 1.50015,1.50015 0 0 0 0.19922,-0.0781 l 6.94141,-3.28711 8.67187,3.48047 0.28321,0.11329 6.3789,5.5996 3.94336,8.83204 1.83985,4.12109 2.94531,9.46289 1.78516,5.73633 a 1.50015,1.50015 0 0 0 0.63476,0.82226 l 0.23633,0.15039 a 1.50015,1.50015 0 0 0 0.65039,0.22266 l 0.60352,0.0605 a 1.50015,1.50015 0 0 0 0.19726,0.006 l 0.95117,-0.0312 a 1.50015,1.50015 0 0 0 0.0957,-0.006 l 1.25976,-0.12305 a 1.50015,1.50015 0 0 0 0.0586,-0.008 l 1.51953,-0.20703 a 1.50015,1.50015 0 0 0 0.043,-0.01 l 1.72461,-0.28711 a 1.50015,1.50015 0 0 0 0.0332,-0.006 l 1.86133,-0.35351 a 1.50015,1.50015 0 0 0 0.0293,-0.006 l 1.92383,-0.40821 a 1.50015,1.50015 0 0 0 0.0293,-0.006 l 1.91406,-0.44336 a 1.50015,1.50015 0 0 0 0.0293,-0.008 l 1.82812,-0.46484 a 1.50015,1.50015 0 0 0 0.0332,-0.01 l 1.67382,-0.46679 a 1.50015,1.50015 0 0 0 0.041,-0.0117 l 1.45312,-0.45313 a 1.50015,1.50015 0 0 0 0.0566,-0.0176 l 1.17578,-0.41797 a 1.50015,1.50015 0 0 0 0.0918,-0.0371 l 0.85352,-0.36719 a 1.50015,1.50015 0 0 0 0.1875,-0.0977 l 0.5,-0.30468 a 1.50015,1.50015 0 0 0 0.5332,-0.5586 l 0.0293,-0.0527 0.47852,0.27344 0.0117,-0.0195 a 1.50015,1.50015 0 0 0 0.13282,-1.18164 l -2.29297,-7.51953 -2.59961,-8.52929 -0.31445,-1.03321 v -0.002 a 1.50015,1.50015 0 0 0 -0.26954,-0.47852 l 0.20704,-0.0898 -3.98438,-9.17188 -2.78516,-6.4082 a 1.50015,1.50015 0 0 0 -0.26367,-0.41016 l -6.71094,-7.41406 -4.22461,-4.66797 a 1.50015,1.50015 0 0 0 -0.42578,-0.32617 l -8.88476,-4.58594 -6.67188,-3.4414 a 1.50015,1.50015 0 0 0 -0.84375,-0.1582 z m -0.13281,3.02929 6.27148,3.23633 8.64454,4.46094 4.04492,4.46679 6.54297,7.23047 2.6875,6.1836 3.875,8.92187 a 1.50015,1.50015 0 0 0 0.0527,0.4961 v 0.002 l 0.17188,0.5625 2.10742,6.9375 2.4375,8.02539 -0.50781,0.21875 -1.10157,0.39062 -1.40234,0.4375 -1.63281,0.45508 -1.79688,0.45703 -1.88476,0.4375 -1.89453,0.40039 -1.82813,0.34766 -1.68555,0.28125 -1.4707,0.20117 -1.18164,0.11524 -0.5293,0.0176 -1.51758,-4.87891 -2.97265,-9.54883 a 1.50015,1.50015 0 0 0 -0.0625,-0.16602 l -1.87695,-4.20117 -4.07618,-9.13086 a 1.50015,1.50015 0 0 0 -0.38086,-0.51562 l -6.82031,-5.98633 a 1.50015,1.50015 0 0 0 -0.42969,-0.26562 l -0.51953,-0.20899 a 1.50015,1.50015 0 0 0 -0.002,0 l -9.2793,-3.72265 a 1.50015,1.50015 0 0 0 -1.20117,0.0371 l -7.4375,3.52344 -2.96875,0.91602 -9.55469,2.95117 a 1.50015,1.50015 0 0 0 -0.0566,0.0195 l -7.19336,2.54688 -9.42773,3.33593 a 1.50015,1.50015 0 0 0 -0.0664,0.0254 l -8.70898,3.56836 -9.125,3.73633 -6.85547,1.41016 -9.79492,2.01172 a 1.50015,1.50015 0 0 0 0,0.002 l -6.97461,1.43359 -9.65821,1.98438 -9.1914,0.15039 -10,0.16406 a 1.50015,1.50015 0 0 0 -0.0723,0.004 l -7.50586,0.48828 -9.97851,0.65039 a 1.50015,1.50015 0 0 0 -0.0625,0.006 l -3.09375,0.32812 -9.83594,1.04688 -8.14453,-0.30664 a 1.50015,1.50015 0 0 0 -1.11914,0.4414 l -0.34961,0.34961 -7.05078,7.09375 a 1.50015,1.50015 0 0 0 -0.28906,0.41211 l -3.88477,8.14649 a 1.50015,1.50015 0 0 0 -0.14648,0.61914 l -0.0781,4.52734 -0.17383,9.99805 a 1.50015,1.50015 0 0 0 0.01,0.17773 l 0.5957,5.86328 0.89063,8.73438 -0.75391,0.26562 -1.32031,0.39844 -1.57227,0.42188 -1.75195,0.42187 -1.85938,0.40625 -1.89062,0.37305 -1.8457,0.32617 -1.72266,0.26367 -1.5293,0.19141 -1.26172,0.11328 -0.60546,0.0215 -0.94922,-8.95898 -0.79883,-7.56836 0.0469,-6.44922 0.0664,-9.75586 1.93164,-5.63086 a 1.50015,1.50015 0 0 0 0.002,0 l 3.1543,-9.20312 4.51562,-5.50586 6.0586,-7.38477 9.02734,-2.82226 9.54492,-2.98047 2.98438,-0.92774 9.55078,-2.96289 a 1.50015,1.50015 0 0 0 0.0586,-0.0195 l 7.11719,-2.52929 9.42188,-3.35157 a 1.50015,1.50015 0 0 0 0.0684,-0.0273 l 8.67578,-3.57227 9.11718,-3.7539 6.87891,-1.42188 9.79297,-2.02343 7.03516,-1.45313 9.65625,-1.99609 9.2832,-0.15821 9.99805,-0.17187 a 1.50015,1.50015 0 0 0 0.0742,-0.002 l 7.61718,-0.50195 9.97852,-0.6582 a 1.50015,1.50015 0 0 0 0.0605,-0.008 l 3.19922,-0.34375 9.94141,-1.06446 10.02539,-1.05273 z m -165.5332,91.80078 0.26367,0.8125 -0.77344,-0.10742 0.0625,-0.45898 0.0977,-0.13282 z m -17.07617,3.72852 h 0.004 l 0.0742,0.7168 z"
         class="UnoptimicedTransforms"
         transform="translate(203.64407,-90.381353)" />
      <path
         style="color:#000000;fill:#000000;stroke-linejoin:round"
         d="m 637.90077,147.12236 -0.56836,2.94531 0.3125,0.0606 0.56836,-2.94531 z"
         id="path18892" />
      <path
         style="color:#000000;fill:#000000;stroke-linejoin:round"
         d="m 782.86757,118.18095 -0.0195,0.12891 2.97266,0.41406 0.0176,-0.12891 z"
         id="path18900" />
      <path
         style="color:#000000;fill:#000000;stroke-linejoin:round"
         d="m 831.25233,151.22782 v 1.52149 l 1.1309,0.96875 0.012,-0.0137 a 1.50015,1.50015 0 0 0 -1.1387,-2.47656 z m -1.1348,0.5254 -0.012,0.0137 0.029,0.0254 z m 1.1348,2.46679 v 0.008 0 z"
         id="path18902" />
    </g>
  </g>
</svg>
